# xmcd
#
# Track frame offsets: 
#        150
#        12080
#        27020
#        45214
#        63167
#        79732
#        99282
#        116917
#        129532
#        143342
#        156312
#        171737
#        189237
#        204559
#
# Disc length: 2918 seconds
#
# Revision: 0
# Processed by: cddbd v1.5.2PL0 Copyright (c) Steve Scherf et al.
# Submitted via: ExactAudioCopy v1.1
#
DISCID=ad0b640e
DTITLE=Various Artist - Country Star - Men of the Nineties
DYEAR=1900
DGENRE=Country
TTITLE0=Kenny Chesney - Fall in Love
TTITLE1=Diamond Rio - Meet in the Middle
TTITLE2=Trace Adkins - (This Ain't) No Thinkin' Thing
TTITLE3=Collin Raye - Little Rock
TTITLE4=Ty Herndon - Loved Too Much
TTITLE5=Alan Jackson - Gone Country
TTITLE6=Clint Black - Nothin' But the Taillights
TTITLE7=Aaron Tippin - There Ain't Nothin' Wrong With the Radio
TTITLE8=Tracy Lawrence - Time Marches On
TTITLE9=Tracy Byrd - Lifestyles of the Not So Rich and Famous
TTITLE10=Billy Ray Cyrus - Achy Breaky Heart
TTITLE11=Lonestar - Everything's Changed
TTITLE12=BlackHawk - Goodbye Says It All
TTITLE13=Travis Tritt - Country Club
EXTD=
EXTT0=
EXTT1=
EXTT2=
EXTT3=
EXTT4=
EXTT5=
EXTT6=
EXTT7=
EXTT8=
EXTT9=
EXTT10=
EXTT11=
EXTT12=
EXTT13=
PLAYORDER=
